# xmcd
#
# Track frame offsets: 
#        150
#        12661
#        34032
#        59349
#        73244
#        88447
#        107157
#        124798
#        146328
#        171459
#        193791
#        220370
#        232464
#        255822
#        278078
#
# Disc length: 3909 seconds
#
# Revision: 1
# Processed by: cddbd v1.5.1PL2 Copyright (c) Steve Scherf et al.
# Submitted via: ExactAudioCopy v0.95a5
#
DISCID=ed0f430f
DTITLE=Louis Armstrong - The Essential Louis
DYEAR=2000
DGENRE=Blues
TTITLE0=When It's Sleepy Time Down South
TTITLE1=Indiana
TTITLE2=Give Me A Kiss To Build A Dream On
TTITLE3=The Bucket's Got A Hole In
TTITLE4=Mack The Knife
TTITLE5=Ole Miss Blues
TTITLE6=C'est Si Bon
TTITLE7=La Vie En Rose
TTITLE8=The Faithful Hussar
TTITLE9=Tha gypsy
TTITLE10=Basin Street Blues
TTITLE11=Tiger Rag
TTITLE12=Struttin' With Some Barbecue
TTITLE13=Do You Know What It Means To Miss New Orleans
TTITLE14=When The saints Go Marching In
EXTD=
EXTT0=
EXTT1=
EXTT2=
EXTT3=
EXTT4=
EXTT5=
EXTT6=
EXTT7=
EXTT8=
EXTT9=
EXTT10=
EXTT11=
EXTT12=
EXTT13=
EXTT14=
PLAYORDER=
